<svg xmlns="http://www.w3.org/2000/svg" width="58" height="58" viewBox="0 0 58 58">
  <g id="グループ_1895" data-name="グループ 1895" transform="translate(4953 8054)">
    <path id="パス_2275" data-name="パス 2275" d="M0,0H58V58H0Z" transform="translate(-4953 -8054)" fill="#c1ac8f"/>
    <g id="グループ_1115" data-name="グループ 1115" transform="translate(-4934.368 -8042.806)">
      <g id="phone-call_4_" data-name="phone-call(4)">
        <g id="グループ_811" data-name="グループ 811">
          <g id="グループ_810" data-name="グループ 810">
            <path id="パス_1006" data-name="パス 1006" d="M120.891,117.492l-3.27-3.259a1.9,1.9,0,0,0-2.691,0h0l-1.874,1.874a.413.413,0,0,1-.529.047,21.6,21.6,0,0,1-5.045-4.952.407.407,0,0,1,.041-.529l1.92-1.92a1.9,1.9,0,0,0,0-2.688l-3.27-3.27a1.949,1.949,0,0,0-2.694,0l-1.036,1.036A5.819,5.819,0,0,0,101,109.764a17.454,17.454,0,0,0,2.13,4.317,22.633,22.633,0,0,0,6.534,6.418,16.657,16.657,0,0,0,4.841,2.153,5.6,5.6,0,0,0,1.35.163A5.888,5.888,0,0,0,120,121.07l.89-.89A1.9,1.9,0,0,0,120.891,117.492Zm-.824,1.895h0l.006-.017-.89.89a4.655,4.655,0,0,1-4.393,1.257A15.467,15.467,0,0,1,110.3,119.5a21.513,21.513,0,0,1-6.191-6.069,16.289,16.289,0,0,1-1.99-4.027,4.655,4.655,0,0,1,1.164-4.754l1.036-1.036a.739.739,0,0,1,1.045,0h0l3.27,3.27a.739.739,0,0,1,0,1.045h0l-1.92,1.92a1.565,1.565,0,0,0-.163,2.037,22.922,22.922,0,0,0,5.324,5.225,1.577,1.577,0,0,0,2.013-.175l1.856-1.885a.739.739,0,0,1,1.045,0h0l3.276,3.282a.739.739,0,0,1,0,1.049Z" transform="translate(-100.712 -102.253)" fill="#fcfcfc"/>
          </g>
        </g>
      </g>
    </g>
    <path id="資料請求" d="M-25.465-3.055a3.636,3.636,0,0,1,.672-2.3,1.791,1.791,0,0,1,1.457-.777,1.791,1.791,0,0,1,1.457.777,3.7,3.7,0,0,1,.672,2.34A3.7,3.7,0,0,1-21.879-.68,1.788,1.788,0,0,1-23.332.1,1.808,1.808,0,0,1-24.793-.68,3.766,3.766,0,0,1-25.465-3.055Zm.895,0a3.574,3.574,0,0,0,.348,1.668,1.019,1.019,0,0,0,.887.652,1.025,1.025,0,0,0,.887-.652A3.408,3.408,0,0,0-22.1-3.02a3.432,3.432,0,0,0-.352-1.641,1.025,1.025,0,0,0-.887-.648,1.023,1.023,0,0,0-.883.648A3.33,3.33,0,0,0-24.57-3.051Zm5.254-2.129h-1.043l.5-.852h1.453V0h-.91Zm4.141,4.324h2.246V0H-16.98l2.094-2.535q.309-.379.518-.656a4.988,4.988,0,0,0,.318-.465,1.307,1.307,0,0,0,.223-.66.941.941,0,0,0-.3-.707,1.019,1.019,0,0,0-.734-.285q-.914,0-1.047,1.082h-.906q.219-1.906,1.926-1.906a1.945,1.945,0,0,1,1.383.523,1.7,1.7,0,0,1,.563,1.3,1.97,1.97,0,0,1-.262.965,4.727,4.727,0,0,1-.389.584q-.256.338-.646.8Zm3.273-2.2a3.636,3.636,0,0,1,.672-2.3,1.791,1.791,0,0,1,1.457-.777,1.791,1.791,0,0,1,1.457.777,3.7,3.7,0,0,1,.672,2.34A3.7,3.7,0,0,1-8.316-.68,1.788,1.788,0,0,1-9.77.1,1.808,1.808,0,0,1-11.23-.68,3.766,3.766,0,0,1-11.9-3.055Zm.895,0a3.574,3.574,0,0,0,.348,1.668,1.019,1.019,0,0,0,.887.652,1.025,1.025,0,0,0,.887-.652A3.408,3.408,0,0,0-8.535-3.02,3.432,3.432,0,0,0-8.887-4.66a1.025,1.025,0,0,0-.887-.648,1.023,1.023,0,0,0-.883.648A3.33,3.33,0,0,0-11.008-3.051Zm3.7.734h1.742v.766H-7.3Zm2.082-.738a3.636,3.636,0,0,1,.672-2.3,1.791,1.791,0,0,1,1.457-.777,1.791,1.791,0,0,1,1.457.777,3.7,3.7,0,0,1,.672,2.34A3.7,3.7,0,0,1-1.637-.68,1.788,1.788,0,0,1-3.09.1,1.808,1.808,0,0,1-4.551-.68,3.766,3.766,0,0,1-5.223-3.055Zm.895,0A3.574,3.574,0,0,0-3.98-1.383a1.019,1.019,0,0,0,.887.652,1.025,1.025,0,0,0,.887-.652A3.408,3.408,0,0,0-1.855-3.02,3.432,3.432,0,0,0-2.207-4.66a1.025,1.025,0,0,0-.887-.648,1.023,1.023,0,0,0-.883.648A3.33,3.33,0,0,0-4.328-3.051Zm4.043,0a3.636,3.636,0,0,1,.672-2.3,1.791,1.791,0,0,1,1.457-.777A1.791,1.791,0,0,1,3.3-5.355a3.7,3.7,0,0,1,.672,2.34A3.7,3.7,0,0,1,3.3-.68,1.788,1.788,0,0,1,1.848.1,1.808,1.808,0,0,1,.387-.68,3.766,3.766,0,0,1-.285-3.055Zm.895,0A3.574,3.574,0,0,0,.957-1.383a1.019,1.019,0,0,0,.887.652,1.025,1.025,0,0,0,.887-.652A3.408,3.408,0,0,0,3.082-3.02,3.432,3.432,0,0,0,2.73-4.66a1.025,1.025,0,0,0-.887-.648,1.023,1.023,0,0,0-.883.648A3.33,3.33,0,0,0,.609-3.051Zm4.043,0a3.636,3.636,0,0,1,.672-2.3,1.791,1.791,0,0,1,1.457-.777,1.791,1.791,0,0,1,1.457.777,3.7,3.7,0,0,1,.672,2.34A3.7,3.7,0,0,1,8.238-.68,1.788,1.788,0,0,1,6.785.1,1.808,1.808,0,0,1,5.324-.68,3.766,3.766,0,0,1,4.652-3.055Zm.895,0a3.574,3.574,0,0,0,.348,1.668,1.019,1.019,0,0,0,.887.652,1.025,1.025,0,0,0,.887-.652A3.408,3.408,0,0,0,8.02-3.02,3.432,3.432,0,0,0,7.668-4.66a1.025,1.025,0,0,0-.887-.648A1.023,1.023,0,0,0,5.9-4.66,3.33,3.33,0,0,0,5.547-3.051Zm3.7.734h1.742v.766H9.25Zm2.082-.738A3.636,3.636,0,0,1,12-5.355a1.791,1.791,0,0,1,1.457-.777,1.791,1.791,0,0,1,1.457.777,3.7,3.7,0,0,1,.672,2.34A3.7,3.7,0,0,1,14.918-.68,1.788,1.788,0,0,1,13.465.1,1.808,1.808,0,0,1,12-.68,3.766,3.766,0,0,1,11.332-3.055Zm.895,0a3.574,3.574,0,0,0,.348,1.668,1.019,1.019,0,0,0,.887.652,1.025,1.025,0,0,0,.887-.652A3.408,3.408,0,0,0,14.7-3.02a3.432,3.432,0,0,0-.352-1.641,1.025,1.025,0,0,0-.887-.648,1.023,1.023,0,0,0-.883.648A3.33,3.33,0,0,0,12.227-3.051Zm4.043,0a3.636,3.636,0,0,1,.672-2.3A1.791,1.791,0,0,1,18.4-6.133a1.791,1.791,0,0,1,1.457.777,3.7,3.7,0,0,1,.672,2.34A3.7,3.7,0,0,1,19.855-.68,1.788,1.788,0,0,1,18.4.1,1.808,1.808,0,0,1,16.941-.68,3.766,3.766,0,0,1,16.27-3.055Zm.895,0a3.574,3.574,0,0,0,.348,1.668A1.019,1.019,0,0,0,18.4-.73a1.025,1.025,0,0,0,.887-.652,3.408,3.408,0,0,0,.352-1.637,3.432,3.432,0,0,0-.352-1.641,1.025,1.025,0,0,0-.887-.648,1.023,1.023,0,0,0-.883.648A3.33,3.33,0,0,0,17.164-3.051Zm4.043,0a3.636,3.636,0,0,1,.672-2.3,1.791,1.791,0,0,1,1.457-.777,1.791,1.791,0,0,1,1.457.777,3.7,3.7,0,0,1,.672,2.34A3.7,3.7,0,0,1,24.793-.68,1.788,1.788,0,0,1,23.34.1,1.808,1.808,0,0,1,21.879-.68,3.766,3.766,0,0,1,21.207-3.055Zm.895,0a3.574,3.574,0,0,0,.348,1.668,1.019,1.019,0,0,0,.887.652,1.025,1.025,0,0,0,.887-.652,3.408,3.408,0,0,0,.352-1.637,3.432,3.432,0,0,0-.352-1.641,1.025,1.025,0,0,0-.887-.648,1.023,1.023,0,0,0-.883.648A3.33,3.33,0,0,0,22.1-3.051Z" transform="translate(-4924 -8007)" fill="#fcfcfc"/>
  </g>
</svg>
