<svg xmlns="http://www.w3.org/2000/svg" width="58" height="58" viewBox="0 0 58 58">
  <g id="グループ_1896" data-name="グループ 1896" transform="translate(4885 8054)">
    <path id="長方形_19747" data-name="長方形 19747" d="M0,0H58V58H0Z" transform="translate(-4885 -8054)" fill="#c896a2"/>
    <path id="資料請求" d="M-12.136-5.5a1.285,1.285,0,0,1-.84.912,4.032,4.032,0,0,1-1.216.288l.288-.136-.24-.7a8.179,8.179,0,0,1-1.96.72l.312.824c.152-.072.232-.112.352-.16.592-.24.688-.28,1.152-.5a2.178,2.178,0,0,1,.336.512h-.416c-.368,0-.648-.008-.816-.024a7.611,7.611,0,0,1,.032.832V-1.36c0,.336-.016.656-.032.8.2-.016.48-.024.848-.024h.32a5.583,5.583,0,0,1-2.128.56,3.2,3.2,0,0,1,.488.712,6.468,6.468,0,0,0,2.536-.92l-.488-.352h2.184l-.464.352A6.111,6.111,0,0,0-9.28.68a3.874,3.874,0,0,1,.5-.736A5.918,5.918,0,0,1-11-.584h.376c.336,0,.664.008.848.024a7.121,7.121,0,0,1-.032-.848v-1.48c0-.248,0-.48.008-.7a6.112,6.112,0,0,0,.728.16,2.866,2.866,0,0,1,.336-.784c-1.456-.08-2.28-.5-2.528-1.3h1.232a2.385,2.385,0,0,1-.536.472,3.83,3.83,0,0,1,.736.3,4.573,4.573,0,0,0,.7-.824c.1-.152.12-.184.184-.272l-.472-.368a4.3,4.3,0,0,1-.664.032h-2.344a2.616,2.616,0,0,0,.168-.264,2.391,2.391,0,0,0,.136-.224l-.84-.152a3.3,3.3,0,0,1-1.272,1.44,1.968,1.968,0,0,1,.536.528,5.392,5.392,0,0,0,.76-.672Zm-1.184,1.76a2.967,2.967,0,0,0,.9-.328A1.862,1.862,0,0,0-11.68-4.8a2.4,2.4,0,0,0,1.36,1.056h-3Zm-1,.584h3.68v.3h-3.68Zm0,.816h3.68v.328h-3.68Zm0,.84h3.68v.3h-3.68Zm.232-4.4a7.637,7.637,0,0,0-1.3-.736l-.52.608a5.4,5.4,0,0,1,1.272.784Zm9.544,5.24c.176-.056.408-.12.76-.2l1.7-.384V-.28a5.8,5.8,0,0,1-.048.952h.968a5.866,5.866,0,0,1-.048-.944V-1.44l.08-.016A5.844,5.844,0,0,1-.368-1.6l-.168-.912a4.879,4.879,0,0,1-.68.2V-5.784a5.654,5.654,0,0,1,.048-.92h-.968a5.475,5.475,0,0,1,.048.928V-2.12L-3.96-1.7a5.357,5.357,0,0,1-.736.112,4.665,4.665,0,0,1,.224-.448A4.248,4.248,0,0,1-5.5-3.264h.288a4.653,4.653,0,0,1,.632.032v-.832a4.051,4.051,0,0,1-.616.032h-.376v-1.9a4.776,4.776,0,0,1,.04-.776h-.912a4.95,4.95,0,0,1,.04.784v1.9h-.536a3.973,3.973,0,0,1-.72-.04v.848a4.139,4.139,0,0,1,.72-.04h.416a6.745,6.745,0,0,1-.424.9,5.26,5.26,0,0,1-.864,1.184,2.41,2.41,0,0,1,.408.824,5.526,5.526,0,0,0,1.04-1.8c-.016.264-.032.64-.032.96V-.16a5.18,5.18,0,0,1-.056.848h.928a4.732,4.732,0,0,1-.048-.832v-1.32c0-.256-.008-.368-.048-.912a5.918,5.918,0,0,0,.808,1.128c.04-.128.048-.168.088-.272Zm-3.176-5.3a6.455,6.455,0,0,1,.5,1.712l.672-.288A9.73,9.73,0,0,0-7.04-6.272Zm2.752-.32A6.655,6.655,0,0,1-5.52-4.56l.584.3A9.681,9.681,0,0,0-4.3-5.992Zm.76.728A6.758,6.758,0,0,1-2.792-4.328L-2.248-5a7.771,7.771,0,0,0-1.4-1.176Zm-.248,1.976A7,7,0,0,1-3.048-2.352L-2.5-3A7.3,7.3,0,0,0-3.9-4.176ZM5.112-5.536V-5.2h-.7a5.21,5.21,0,0,1-.68-.032v.688a5.233,5.233,0,0,1,.672-.032h.7v.328h-.92A3.9,3.9,0,0,1,3.384-4.3v.752a4.49,4.49,0,0,1,.808-.048h2.9a4.35,4.35,0,0,1,.792.048V-4.3a4.2,4.2,0,0,1-.792.048H5.936v-.328h.832a5.133,5.133,0,0,1,.68.032v-.688a4.649,4.649,0,0,1-.664.032H5.936v-.336H6.952a6.344,6.344,0,0,1,.776.032v-.712a3.914,3.914,0,0,1-.776.048H5.936a2.483,2.483,0,0,1,.048-.592h-.92a2.563,2.563,0,0,1,.048.592H4.3a3.83,3.83,0,0,1-.76-.048V-5.5a5.89,5.89,0,0,1,.76-.032Zm-.6,4.9H6.584v.272c0,.192-.048.232-.264.232a5.829,5.829,0,0,1-.776-.072,2.978,2.978,0,0,1,.192.776c.264.016.4.024.648.024.808,0,1.008-.152,1.008-.776v-2.3a7.176,7.176,0,0,1,.032-.824,5.2,5.2,0,0,1-.72.032H4.32c-.3,0-.432-.008-.64-.024.016.224.024.384.024.68v2.36a5.208,5.208,0,0,1-.048.912h.9a6.862,6.862,0,0,1-.048-.912Zm0-.648v-.328H6.584v.328Zm0-.968V-2.6H6.584v.344ZM.784-5.8a4.99,4.99,0,0,1,.648-.032h1.1a5.069,5.069,0,0,1,.648.032v-.736a3.621,3.621,0,0,1-.648.04h-1.1a3.514,3.514,0,0,1-.648-.04ZM.52-4.624a4.781,4.781,0,0,1,.64-.032H2.7a5.523,5.523,0,0,1,.608.024v-.776a4.208,4.208,0,0,1-.64.032H1.16a3.524,3.524,0,0,1-.64-.04ZM.8-3.5a4.051,4.051,0,0,1,.5-.024H2.656a3.941,3.941,0,0,1,.488.024v-.7a3.521,3.521,0,0,1-.488.024H1.3A4.051,4.051,0,0,1,.8-4.2Zm0,1.12A4,4,0,0,1,1.3-2.4H2.64a3.964,3.964,0,0,1,.5.024v-.7a3.656,3.656,0,0,1-.5.024H1.3A4.051,4.051,0,0,1,.8-3.08ZM1.584.616V.24h.84V.512h.784A4.292,4.292,0,0,1,3.176-.12V-1.376A5.029,5.029,0,0,1,3.2-1.96a4.007,4.007,0,0,1-.544.024H1.408a4.38,4.38,0,0,1-.624-.032,4.806,4.806,0,0,1,.032.632V-.168C.816.1.8.368.776.616Zm0-1.856h.84v.776h-.84ZM15.112-4.608a6.913,6.913,0,0,1,.92.048v-.88a6.913,6.913,0,0,1-.92.048H14.56l.48-.36a6.789,6.789,0,0,0-.992-.984l-.624.464a4.575,4.575,0,0,1,.848.88h-1.36V-5.84a6.419,6.419,0,0,1,.048-.88H12a6.055,6.055,0,0,1,.048.872v.456H9.88a6.749,6.749,0,0,1-.92-.048v.88a6.7,6.7,0,0,1,.872-.048h2.216v4.12c0,.216-.056.264-.3.264a5.789,5.789,0,0,1-1.048-.1,2.855,2.855,0,0,1,.216.864c.36.024.7.04,1.008.04.76,0,.992-.176.992-.76V-1.872c0-.344-.016-.8-.032-1.168a5.917,5.917,0,0,0,1.048,1.656A7.732,7.732,0,0,0,15.592.064a4.022,4.022,0,0,1,.6-.824A6.3,6.3,0,0,1,14.816-1.7a5.509,5.509,0,0,1-.712-.728,11.743,11.743,0,0,0,1.024-.9c.392-.416.392-.416.472-.5l-.736-.56A5.665,5.665,0,0,1,13.64-3.08a5.619,5.619,0,0,1-.7-1.528Zm-5.528.72a6.406,6.406,0,0,1,1.04,1.424L11.376-3a8.855,8.855,0,0,0-1.1-1.4Zm2.088,1.28a10.446,10.446,0,0,1-1.5,1,6.732,6.732,0,0,1-1.176.544l.424.9c.144-.1.248-.168.448-.288a17.21,17.21,0,0,0,2.1-1.36Z" transform="translate(-4856 -8007)" fill="#fcfcfc"/>
    <g id="file_1_" data-name="file(1)" transform="translate(-4864.671 -8042.806)">
      <g id="グループ_1077" data-name="グループ 1077">
        <g id="グループ_1076" data-name="グループ 1076">
          <path id="パス_2269" data-name="パス 2269" d="M56.448,2.725H54.714V.991A.994.994,0,0,0,53.723,0H41.088A.994.994,0,0,0,40.1.991V16.846a.994.994,0,0,0,.991.991h1.734v1.734a.994.994,0,0,0,.991.991h8.423a2.891,2.891,0,0,0,1.712-.679l2.768-2.606a2.631,2.631,0,0,0,.722-1.67V3.716a.994.994,0,0,0-.993-.991Zm-13.626.991V17.094H41.088a.251.251,0,0,1-.248-.248V.991a.251.251,0,0,1,.248-.248H53.723a.251.251,0,0,1,.248.248V2.725H43.813a.994.994,0,0,0-.991.991Zm13.385,13.02-2.768,2.606a1.316,1.316,0,0,1-.212.155V17.218a.621.621,0,0,1,.619-.619h2.479a1.041,1.041,0,0,1-.118.138Zm.488-1.129a1.155,1.155,0,0,1-.034.248H53.846a1.365,1.365,0,0,0-1.363,1.363v2.571a1.3,1.3,0,0,1-.248.03H43.813a.251.251,0,0,1-.248-.248V3.716a.251.251,0,0,1,.248-.248H56.448a.251.251,0,0,1,.248.248Z" transform="translate(-40.097)" fill="#fcfcfc" stroke="#fdfcfb" stroke-width="0.2"/>
        </g>
      </g>
      <g id="グループ_1079" data-name="グループ 1079" transform="translate(6.351 6.206)">
        <g id="グループ_1078" data-name="グループ 1078">
          <path id="パス_2270" data-name="パス 2270" d="M198.375,154.216h-6.789a.351.351,0,1,0,0,.7h6.789a.351.351,0,1,0,0-.7Z" transform="translate(-191.235 -154.216)" fill="#fcfcfc" stroke="#fdfcfb" stroke-width="0.2"/>
        </g>
      </g>
      <g id="グループ_1081" data-name="グループ 1081" transform="translate(6.351 11.171)">
        <g id="グループ_1080" data-name="グループ 1080">
          <path id="パス_2271" data-name="パス 2271" d="M198.375,277.59h-6.789a.351.351,0,1,0,0,.7h6.789a.351.351,0,1,0,0-.7Z" transform="translate(-191.235 -277.59)" fill="#fcfcfc" stroke="#fdfcfb" stroke-width="0.2"/>
        </g>
      </g>
      <g id="グループ_1083" data-name="グループ 1083" transform="translate(6.194 13.654)">
        <g id="グループ_1082" data-name="グループ 1082">
          <path id="パス_2272" data-name="パス 2272" d="M195.333,339.277h-3.746a.351.351,0,1,0,0,.7h3.746a.351.351,0,0,0,0-.7Z" transform="translate(-191.236 -339.277)" fill="#fcfcfc" stroke="#fdfcfb" stroke-width="0.2"/>
        </g>
      </g>
      <g id="グループ_1085" data-name="グループ 1085" transform="translate(6.351 8.689)">
        <g id="グループ_1084" data-name="グループ 1084">
          <path id="パス_2273" data-name="パス 2273" d="M198.375,215.9h-6.789a.351.351,0,1,0,0,.7h6.789a.351.351,0,1,0,0-.7Z" transform="translate(-191.235 -215.903)" fill="#fcfcfc" stroke="#fdfcfb" stroke-width="0.2"/>
        </g>
      </g>
    </g>
  </g>
</svg>
