<svg xmlns="http://www.w3.org/2000/svg" width="500" height="319" viewBox="0 0 500 319">
  <g id="グループ_1893" data-name="グループ 1893" transform="translate(4367 4833)">
    <rect id="長方形_20" data-name="長方形 20" width="500" height="319" transform="translate(-4367 -4833)" fill="#fff"/>
    <path id="パス_17293" data-name="パス 17293" d="M-62.256-7.1h1.488a7.5,7.5,0,0,0,4.92-1.272,5.784,5.784,0,0,0,2.16-4.7,6.067,6.067,0,0,0-2.184-4.872A7.449,7.449,0,0,0-60.744-19.3h-2.3c-3.288,0-3.288,2.112-3.288,3.336V-1.512c0,1.464.816,1.9,2.064,1.9,1.416,0,2.016-.648,2.016-1.9Zm0-3.744v-3.96c0-.6.192-.744.744-.744h.528c1.56,0,3.216,0,3.216,2.4,0,2.3-1.776,2.3-3.216,2.3ZM-41.424.384a14.446,14.446,0,0,0,5.352-.96,1.619,1.619,0,0,0,1.128-1.68,1.775,1.775,0,0,0-1.728-1.9,3.736,3.736,0,0,0-1.224.264,10.647,10.647,0,0,1-3.264.528c-4.008,0-6.408-2.64-6.408-6.288a5.927,5.927,0,0,1,6.312-6.288,7.362,7.362,0,0,1,3,.648A2.868,2.868,0,0,0-37.1-15a1.891,1.891,0,0,0,1.728-2.016,1.6,1.6,0,0,0-.864-1.464,10.99,10.99,0,0,0-5.136-1.2c-5.856,0-10.272,4.032-10.272,10.056C-51.648-4.224-48,.384-41.424.384ZM.528,0c1.3,0,1.92-.576,1.92-1.9A1.665,1.665,0,0,0,.528-3.744H-3.6c-.576,0-.744-.168-.744-.744v-13.3c0-1.368-.7-1.9-2.064-1.9-1.44,0-2.016.672-2.016,1.9V-3.336c0,1.152,0,3.336,3.288,3.336ZM4.344-9.648A9.732,9.732,0,0,0,14.3.384a9.732,9.732,0,0,0,9.96-10.032A9.746,9.746,0,0,0,14.3-19.68,9.746,9.746,0,0,0,4.344-9.648Zm4.08,0a6.011,6.011,0,0,1,5.88-6.288,6.011,6.011,0,0,1,5.88,6.288A6,6,0,0,1,14.3-3.36,6,6,0,0,1,8.424-9.648ZM40.608-4.632c0,.48,0,.624-.264.768a8.075,8.075,0,0,1-2.976.5c-5.064,0-6.624-3.408-6.624-6.24s1.656-6.336,6.648-6.336a9.371,9.371,0,0,1,3.6.7,3.446,3.446,0,0,0,1.368.36A1.87,1.87,0,0,0,44.088-16.9c0-.792-.288-1.176-1.1-1.584a13.083,13.083,0,0,0-5.592-1.2c-6.5,0-10.728,4.3-10.728,10.008C26.664-4.728,29.976.384,37.416.384c2.352,0,5.232-.528,6.192-1.248a3.256,3.256,0,0,0,.864-2.616V-7.9c0-1.008-.024-3.192-3.264-3.192H37.872c-1.2,0-1.824.528-1.824,1.8a1.58,1.58,0,0,0,1.824,1.752h1.992c.6,0,.744.192.744.744Zm6.384-5.016A9.732,9.732,0,0,0,56.952.384a9.732,9.732,0,0,0,9.96-10.032,9.746,9.746,0,0,0-9.96-10.032A9.746,9.746,0,0,0,46.992-9.648Zm4.08,0a6.011,6.011,0,0,1,5.88-6.288,6.011,6.011,0,0,1,5.88,6.288,6,6,0,0,1-5.88,6.288A6,6,0,0,1,51.072-9.648Z" transform="translate(-4117 -4664)"/>
  </g>
</svg>
