<svg xmlns="http://www.w3.org/2000/svg" width="550" height="277" viewBox="0 0 550 277">
  <g id="グループ_1894" data-name="グループ 1894" transform="translate(3805 4833)">
    <rect id="長方形_13" data-name="長方形 13" width="550" height="277" transform="translate(-3805 -4833)" fill="#fff"/>
    <path id="パス_17292" data-name="パス 17292" d="M-63.66-4.32a1.9,1.9,0,0,0-1.752,1.968A1.8,1.8,0,0,0-64.332-.7,10.863,10.863,0,0,0-59.556.384c4.344,0,7.056-2.712,7.056-6.192,0-3.96-3.072-5.016-5.76-5.952-1.416-.48-2.5-.84-2.5-2.184,0-.936.744-1.992,2.5-1.992a6.276,6.276,0,0,1,1.872.336,6.843,6.843,0,0,0,1.2.336A1.8,1.8,0,0,0-53.6-17.28a1.625,1.625,0,0,0-1.056-1.608,9.634,9.634,0,0,0-3.72-.792c-3.912,0-6.432,2.688-6.432,5.952,0,3.744,2.9,4.776,5.064,5.544,1.7.6,3.168,1.128,3.168,2.688,0,1.392-1.392,2.136-3.1,2.136a7.676,7.676,0,0,1-2.976-.672A2.506,2.506,0,0,0-63.66-4.32ZM-45.732-7.1h1.488a7.5,7.5,0,0,0,4.92-1.272,5.784,5.784,0,0,0,2.16-4.7,6.067,6.067,0,0,0-2.184-4.872A7.449,7.449,0,0,0-44.22-19.3h-2.3c-3.288,0-3.288,2.112-3.288,3.336V-1.512c0,1.464.816,1.9,2.064,1.9,1.416,0,2.016-.648,2.016-1.9Zm0-3.744v-3.96c0-.6.192-.744.744-.744h.528c1.56,0,3.216,0,3.216,2.4,0,2.3-1.776,2.3-3.216,2.3ZM-1.6,0C-.3,0,.324-.576.324-1.9A1.665,1.665,0,0,0-1.6-3.744H-5.724c-.576,0-.744-.168-.744-.744v-13.3c0-1.368-.7-1.9-2.064-1.9-1.44,0-2.016.672-2.016,1.9V-3.336c0,1.152,0,3.336,3.288,3.336ZM2.22-9.648A9.732,9.732,0,0,0,12.18.384,9.732,9.732,0,0,0,22.14-9.648,9.746,9.746,0,0,0,12.18-19.68,9.746,9.746,0,0,0,2.22-9.648Zm4.08,0a6.011,6.011,0,0,1,5.88-6.288,6.011,6.011,0,0,1,5.88,6.288A6,6,0,0,1,12.18-3.36,6,6,0,0,1,6.3-9.648ZM38.484-4.632c0,.48,0,.624-.264.768a8.075,8.075,0,0,1-2.976.5c-5.064,0-6.624-3.408-6.624-6.24s1.656-6.336,6.648-6.336a9.371,9.371,0,0,1,3.6.7,3.446,3.446,0,0,0,1.368.36A1.87,1.87,0,0,0,41.964-16.9c0-.792-.288-1.176-1.1-1.584a13.083,13.083,0,0,0-5.592-1.2c-6.5,0-10.728,4.3-10.728,10.008C24.54-4.728,27.852.384,35.292.384c2.352,0,5.232-.528,6.192-1.248a3.256,3.256,0,0,0,.864-2.616V-7.9c0-1.008-.024-3.192-3.264-3.192H35.748c-1.2,0-1.824.528-1.824,1.8a1.58,1.58,0,0,0,1.824,1.752H37.74c.6,0,.744.192.744.744Zm6.384-5.016A9.732,9.732,0,0,0,54.828.384a9.732,9.732,0,0,0,9.96-10.032,9.746,9.746,0,0,0-9.96-10.032A9.746,9.746,0,0,0,44.868-9.648Zm4.08,0a6.011,6.011,0,0,1,5.88-6.288,6.011,6.011,0,0,1,5.88,6.288,6,6,0,0,1-5.88,6.288A6,6,0,0,1,48.948-9.648Z" transform="translate(-3530 -4685)"/>
  </g>
</svg>
